<svg xmlns="http://www.w3.org/2000/svg" viewBox="0 0 1200 860">
  <defs>
    <style>
      @import url('https://fonts.googleapis.com/css2?family=JetBrains+Mono:wght@400;500;600;700&amp;display=swap');
      text { font-family: 'JetBrains Mono', 'Noto Sans SC', 'PingFang SC', 'Microsoft YaHei', sans-serif; }
    </style>

    <!-- Grid pattern -->
    <pattern id="grid" width="40" height="40" patternUnits="userSpaceOnUse">
      <path d="M 40 0 L 0 0 0 40" fill="none" stroke="#1e293b" stroke-width="0.5"/>
    </pattern>

    <!-- Arrow markers -->
    <marker id="arr-cyan" markerWidth="10" markerHeight="7" refX="9" refY="3.5" orient="auto">
      <polygon points="0 0, 10 3.5, 0 7" fill="#22d3ee"/>
    </marker>
    <marker id="arr-emerald" markerWidth="10" markerHeight="7" refX="9" refY="3.5" orient="auto">
      <polygon points="0 0, 10 3.5, 0 7" fill="#34d399"/>
    </marker>
    <marker id="arr-violet" markerWidth="10" markerHeight="7" refX="9" refY="3.5" orient="auto">
      <polygon points="0 0, 10 3.5, 0 7" fill="#a78bfa"/>
    </marker>
    <marker id="arr-amber" markerWidth="10" markerHeight="7" refX="9" refY="3.5" orient="auto">
      <polygon points="0 0, 10 3.5, 0 7" fill="#fbbf24"/>
    </marker>
    <marker id="arr-blue" markerWidth="10" markerHeight="7" refX="9" refY="3.5" orient="auto">
      <polygon points="0 0, 10 3.5, 0 7" fill="#60a5fa"/>
    </marker>

    <!-- Drop shadow -->
    <filter id="shadow" x="-5%" y="-5%" width="110%" height="110%">
      <feDropShadow dx="0" dy="2" stdDeviation="3" flood-color="rgba(0,0,0,0.4)"/>
    </filter>
  </defs>

  <!-- Background -->
  <rect width="100%" height="100%" fill="#0f172a"/>
  <rect width="100%" height="100%" fill="url(#grid)"/>

  <!-- Title -->
  <text x="600" y="32" fill="white" font-size="18" font-weight="700" text-anchor="middle" letter-spacing="2">DDC 000 Knowledge — PARA × LLM-Wiki v1.1 融合系統架構</text>

  <!-- ======================================================== -->
  <!-- Side role bars -->
  <!-- ======================================================== -->

  <!-- Human role -->
  <rect x="15" y="55" width="18" height="635" rx="4" fill="rgba(59,130,246,0.12)" stroke="#60a5fa" stroke-width="1" stroke-dasharray="4,4"/>
  <text x="24" y="372" fill="#60a5fa" font-size="9" font-weight="600" text-anchor="middle" transform="rotate(-90, 24, 372)">人類：捕獲 · 審閱 · 消費</text>

  <!-- AI role -->
  <rect x="1167" y="55" width="18" height="635" rx="4" fill="rgba(168,85,247,0.12)" stroke="#a78bfa" stroke-width="1" stroke-dasharray="4,4"/>
  <text x="1176" y="372" fill="#a78bfa" font-size="9" font-weight="600" text-anchor="middle" transform="rotate(90, 1176, 372)">AI：編譯 · 組織 · 維護</text>

  <!-- ======================================================== -->
  <!-- LAYER 1: 信息輸入層 -->
  <!-- ======================================================== -->

  <rect x="140" y="55" width="920" height="80" rx="10" fill="none" stroke="#22d3ee" stroke-width="1" stroke-dasharray="8,4" opacity="0.5"/>
  <text x="155" y="70" fill="#22d3ee" font-size="10" font-weight="600">▌信息輸入層 · Information Input</text>

  <!-- Inbox -->
  <rect x="290" y="70" width="170" height="55" rx="6" fill="#0f172a"/>
  <rect x="290" y="70" width="170" height="55" rx="6" fill="rgba(8,51,68,0.4)" stroke="#22d3ee" stroke-width="1.5" filter="url(#shadow)"/>
  <text x="375" y="94" fill="white" font-size="12" font-weight="600" text-anchor="middle">0 Inbox/</text>
  <text x="375" y="111" fill="#94a3b8" font-size="9" text-anchor="middle">臨時捕獲 · 快速記錄</text>

  <!-- RAM / raw -->
  <rect x="515" y="70" width="170" height="55" rx="6" fill="#0f172a"/>
  <rect x="515" y="70" width="170" height="55" rx="6" fill="rgba(8,51,68,0.4)" stroke="#22d3ee" stroke-width="1.5" filter="url(#shadow)"/>
  <text x="600" y="94" fill="white" font-size="12" font-weight="600" text-anchor="middle">RAM / raw/</text>
  <text x="600" y="111" fill="#94a3b8" font-size="9" text-anchor="middle">原始素材 · 文章剪藏</text>

  <!-- External -->
  <rect x="740" y="70" width="170" height="55" rx="6" fill="#0f172a"/>
  <rect x="740" y="70" width="170" height="55" rx="6" fill="rgba(8,51,68,0.4)" stroke="#22d3ee" stroke-width="1.5" filter="url(#shadow)"/>
  <text x="825" y="94" fill="white" font-size="12" font-weight="600" text-anchor="middle">External Sources</text>
  <text x="825" y="111" fill="#94a3b8" font-size="9" text-anchor="middle">Web · API · 瀏覽器</text>

  <!-- Down arrow L1→L2 -->
  <line x1="600" y1="135" x2="600" y2="152" stroke="#34d399" stroke-width="2" stroke-dasharray="4,3" marker-end="url(#arr-emerald)"/>

  <!-- ======================================================== -->
  <!-- LAYER 2: PARA 行動管理層 -->
  <!-- ======================================================== -->

  <rect x="50" y="158" width="1100" height="120" rx="10" fill="none" stroke="#34d399" stroke-width="1" stroke-dasharray="8,4" opacity="0.5"/>
  <text x="65" y="173" fill="#34d399" font-size="10" font-weight="600">▌行動管理層 · PARA 四象限</text>
  <text x="600" y="266" fill="#64748b" font-size="9" text-anchor="middle">按行動性組織內容，Resources 為知識子庫宿主</text>

  <!-- Projects -->
  <rect x="130" y="182" width="190" height="58" rx="6" fill="#0f172a"/>
  <rect x="130" y="182" width="190" height="58" rx="6" fill="rgba(6,78,59,0.4)" stroke="#34d399" stroke-width="1.5" filter="url(#shadow)"/>
  <text x="225" y="206" fill="white" font-size="12" font-weight="600" text-anchor="middle">1. Projects</text>
  <text x="225" y="224" fill="#94a3b8" font-size="9" text-anchor="middle">有截止日期的行動</text>

  <!-- Areas -->
  <rect x="370" y="182" width="190" height="58" rx="6" fill="#0f172a"/>
  <rect x="370" y="182" width="190" height="58" rx="6" fill="rgba(6,78,59,0.4)" stroke="#34d399" stroke-width="1.5" filter="url(#shadow)"/>
  <text x="465" y="206" fill="white" font-size="12" font-weight="600" text-anchor="middle">2. Areas</text>
  <text x="465" y="224" fill="#94a3b8" font-size="9" text-anchor="middle">持續責任範圍</text>

  <!-- Resources ★ (Highlight) -->
  <rect x="610" y="182" width="190" height="58" rx="6" fill="#0f172a"/>
  <rect x="610" y="182" width="190" height="58" rx="6" fill="rgba(6,78,59,0.6)" stroke="#fbbf24" stroke-width="2.5" filter="url(#shadow)"/>
  <text x="705" y="206" fill="#fbbf24" font-size="12" font-weight="700" text-anchor="middle">★ 3. Resources</text>
  <text x="705" y="224" fill="#94a3b8" font-size="9" text-anchor="middle">知識子庫 · Wiki 宿主</text>

  <!-- Archives -->
  <rect x="850" y="182" width="190" height="58" rx="6" fill="#0f172a"/>
  <rect x="850" y="182" width="190" height="58" rx="6" fill="rgba(6,78,59,0.4)" stroke="#34d399" stroke-width="1.5" filter="url(#shadow)"/>
  <text x="945" y="206" fill="white" font-size="12" font-weight="600" text-anchor="middle">4. Archives</text>
  <text x="945" y="224" fill="#94a3b8" font-size="9" text-anchor="middle">已完成 · 不活躍</text>

  <!-- Down arrow Resources → DDC -->
  <line x1="705" y1="240" x2="705" y2="293" stroke="#fbbf24" stroke-width="2.5" stroke-dasharray="6,3" marker-end="url(#arr-amber)"/>
  <text x="718" y="270" fill="#fbbf24" font-size="8" font-weight="600">000 Knowledge/</text>

  <!-- ======================================================== -->
  <!-- LAYER 3: DDC 知識子庫 -->
  <!-- ======================================================== -->

  <rect x="50" y="298" width="1100" height="195" rx="10" fill="none" stroke="#fbbf24" stroke-width="1" stroke-dasharray="8,4" opacity="0.5"/>
  <text x="65" y="313" fill="#fbbf24" font-size="10" font-weight="600">▌知識子庫層 · DDC 分类子庫</text>
  <text x="600" y="482" fill="#64748b" font-size="9" text-anchor="middle">10 個子庫，每庫含獨立 MOC + raw/ + wiki/ + 99-資源收集</text>

  <!-- Row 1: 004 · 005 · 006 (CS Cluster) -->

  <!-- CS Cluster label -->
  <text x="130" y="326" fill="#60a5fa" font-size="8" font-weight="600">CS 集群</text>

  <!-- 004 -->
  <rect x="165" y="322" width="155" height="47" rx="5" fill="#0f172a"/>
  <rect x="165" y="322" width="155" height="47" rx="5" fill="rgba(59,130,246,0.2)" stroke="#60a5fa" stroke-width="1.5" filter="url(#shadow)"/>
  <text x="242" y="342" fill="white" font-size="10" font-weight="600" text-anchor="middle">004 電腦科學</text>
  <text x="242" y="357" fill="#60a5fa" font-size="8" text-anchor="middle">Computer Science</text>

  <!-- 005 -->
  <rect x="355" y="322" width="155" height="47" rx="5" fill="#0f172a"/>
  <rect x="355" y="322" width="155" height="47" rx="5" fill="rgba(59,130,246,0.2)" stroke="#60a5fa" stroke-width="1.5" filter="url(#shadow)"/>
  <text x="432" y="342" fill="white" font-size="10" font-weight="600" text-anchor="middle">005 軟體</text>
  <text x="432" y="357" fill="#60a5fa" font-size="8" text-anchor="middle">Software</text>

  <!-- 006 -->
  <rect x="545" y="322" width="155" height="47" rx="5" fill="#0f172a"/>
  <rect x="545" y="322" width="155" height="47" rx="5" fill="rgba(59,130,246,0.2)" stroke="#60a5fa" stroke-width="1.5" filter="url(#shadow)"/>
  <text x="622" y="342" fill="white" font-size="10" font-weight="600" text-anchor="middle">006 人工智能</text>
  <text x="622" y="357" fill="#60a5fa" font-size="8" text-anchor="middle">AI</text>

  <!-- LIS Cluster label -->
  <text x="750" y="326" fill="#fbbf24" font-size="8" font-weight="600">LIS 集群</text>

  <!-- 010 -->
  <rect x="805" y="322" width="155" height="47" rx="5" fill="#0f172a"/>
  <rect x="805" y="322" width="155" height="47" rx="5" fill="rgba(120,53,15,0.3)" stroke="#fbbf24" stroke-width="1.5" filter="url(#shadow)"/>
  <text x="882" y="342" fill="white" font-size="10" font-weight="600" text-anchor="middle">010 知識學</text>
  <text x="882" y="357" fill="#fbbf24" font-size="8" text-anchor="middle">Prolegomena</text>

  <!-- Row 2: 020 · 030 · 040 · 050 -->
  <text x="130" y="388" fill="#fbbf24" font-size="8" font-weight="600">LIS 集群（續）</text>

  <!-- 020 -->
  <rect x="165" y="384" width="155" height="47" rx="5" fill="#0f172a"/>
  <rect x="165" y="384" width="155" height="47" rx="5" fill="rgba(120,53,15,0.3)" stroke="#fbbf24" stroke-width="1.5" filter="url(#shadow)"/>
  <text x="242" y="404" fill="white" font-size="10" font-weight="600" text-anchor="middle">020 知識組織</text>
  <text x="242" y="419" fill="#fbbf24" font-size="8" text-anchor="middle">KOS</text>

  <!-- 030 -->
  <rect x="355" y="384" width="155" height="47" rx="5" fill="#0f172a"/>
  <rect x="355" y="384" width="155" height="47" rx="5" fill="rgba(120,53,15,0.3)" stroke="#fbbf24" stroke-width="1.5" filter="url(#shadow)"/>
  <text x="432" y="404" fill="white" font-size="10" font-weight="600" text-anchor="middle">030 圖書情報</text>
  <text x="432" y="419" fill="#fbbf24" font-size="8" text-anchor="middle">LIS</text>

  <!-- 040 -->
  <rect x="545" y="384" width="155" height="47" rx="5" fill="#0f172a"/>
  <rect x="545" y="384" width="155" height="47" rx="5" fill="rgba(120,53,15,0.3)" stroke="#fbbf24" stroke-width="1.5" filter="url(#shadow)"/>
  <text x="622" y="404" fill="white" font-size="10" font-weight="600" text-anchor="middle">040 資訊科學</text>
  <text x="622" y="419" fill="#fbbf24" font-size="8" text-anchor="middle">Information Science</text>

  <!-- 050 -->
  <rect x="735" y="384" width="155" height="47" rx="5" fill="#0f172a"/>
  <rect x="735" y="384" width="155" height="47" rx="5" fill="rgba(120,53,15,0.3)" stroke="#fbbf24" stroke-width="1.5" filter="url(#shadow)"/>
  <text x="812" y="404" fill="white" font-size="10" font-weight="600" text-anchor="middle">050 分類元數據</text>
  <text x="812" y="419" fill="#fbbf24" font-size="8" text-anchor="middle">Classification &amp; Metadata</text>

  <!-- Row 3: 060 · 070 -->
  <text x="130" y="450" fill="#fbbf24" font-size="8" font-weight="600">LIS 集群（續）</text>

  <!-- 060 -->
  <rect x="251" y="446" width="155" height="47" rx="5" fill="#0f172a"/>
  <rect x="251" y="446" width="155" height="47" rx="5" fill="rgba(120,53,15,0.3)" stroke="#fbbf24" stroke-width="1.5" filter="url(#shadow)"/>
  <text x="328" y="466" fill="white" font-size="10" font-weight="600" text-anchor="middle">060 知識管理</text>
  <text x="328" y="481" fill="#fbbf24" font-size="8" text-anchor="middle">Knowledge Management</text>

  <!-- 070 -->
  <rect x="441" y="446" width="155" height="47" rx="5" fill="#0f172a"/>
  <rect x="441" y="446" width="155" height="47" rx="5" fill="rgba(120,53,15,0.3)" stroke="#fbbf24" stroke-width="1.5" filter="url(#shadow)"/>
  <text x="518" y="466" fill="white" font-size="10" font-weight="600" text-anchor="middle">070 數字知識</text>
  <text x="518" y="481" fill="#fbbf24" font-size="8" text-anchor="middle">Digital Knowledge</text>

  <!-- Down arrow L3→L4 -->
  <line x1="600" y1="493" x2="600" y2="510" stroke="#a78bfa" stroke-width="2" stroke-dasharray="4,3" marker-end="url(#arr-violet)"/>

  <!-- ======================================================== -->
  <!-- LAYER 4: 知識編譯管道 -->
  <!-- ======================================================== -->

  <rect x="80" y="515" width="1040" height="155" rx="10" fill="none" stroke="#a78bfa" stroke-width="1" stroke-dasharray="8,4" opacity="0.5"/>
  <text x="95" y="530" fill="#a78bfa" font-size="10" font-weight="600">▌知識編譯管道 · Three-Stage Pipeline</text>

  <!-- raw/ 原始素材 -->
  <rect x="200" y="550" width="210" height="70" rx="6" fill="#0f172a"/>
  <rect x="200" y="550" width="210" height="70" rx="6" fill="rgba(8,51,68,0.4)" stroke="#22d3ee" stroke-width="1.5" filter="url(#shadow)"/>
  <text x="305" y="576" fill="white" font-size="12" font-weight="600" text-anchor="middle">raw/ 原始素材</text>
  <text x="305" y="595" fill="#94a3b8" font-size="9" text-anchor="middle">RAM 筆記 · 文章 · 剪藏 · PDF</text>

  <!-- Arrow raw → wiki -->
  <line x1="410" y1="585" x2="480" y2="585" stroke="#22d3ee" stroke-width="2.5" marker-end="url(#arr-cyan)"/>
  <rect x="420" y="567" width="50" height="16" rx="3" fill="rgba(8,51,68,0.8)" stroke="#22d3ee" stroke-width="0.8"/>
  <text x="445" y="579" fill="#22d3ee" font-size="8" font-weight="600" text-anchor="middle">AI</text>

  <!-- wiki/ 結構知識 -->
  <rect x="490" y="545" width="220" height="80" rx="6" fill="#0f172a"/>
  <rect x="490" y="545" width="220" height="80" rx="6" fill="rgba(76,29,149,0.4)" stroke="#a78bfa" stroke-width="1.5" filter="url(#shadow)"/>
  <text x="600" y="568" fill="white" font-size="12" font-weight="600" text-anchor="middle">wiki/ 結構知識</text>

  <!-- wiki sub-component badges -->
  <rect x="505" y="581" width="60" height="18" rx="3" fill="rgba(76,29,149,0.6)" stroke="#a78bfa" stroke-width="0.8"/>
  <text x="535" y="593" fill="white" font-size="8" font-weight="500" text-anchor="middle">concepts</text>

  <rect x="575" y="581" width="60" height="18" rx="3" fill="rgba(76,29,149,0.6)" stroke="#a78bfa" stroke-width="0.8"/>
  <text x="605" y="593" fill="white" font-size="8" font-weight="500" text-anchor="middle">entities</text>

  <rect x="645" y="581" width="60" height="18" rx="3" fill="rgba(76,29,149,0.6)" stroke="#a78bfa" stroke-width="0.8"/>
  <text x="675" y="593" fill="white" font-size="8" font-weight="500" text-anchor="middle">sources</text>

  <text x="600" y="614" fill="#94a3b8" font-size="8" text-anchor="middle">← 三層知識表示 →</text>

  <!-- Arrow wiki → outputs -->
  <line x1="710" y1="585" x2="780" y2="585" stroke="#a78bfa" stroke-width="2.5" marker-end="url(#arr-violet)"/>
  <rect x="720" y="567" width="50" height="16" rx="3" fill="rgba(76,29,149,0.8)" stroke="#a78bfa" stroke-width="0.8"/>
  <text x="745" y="579" fill="#a78bfa" font-size="8" font-weight="600" text-anchor="middle">AI</text>

  <!-- outputs/ 產出 -->
  <rect x="790" y="550" width="210" height="70" rx="6" fill="#0f172a"/>
  <rect x="790" y="550" width="210" height="70" rx="6" fill="rgba(59,130,246,0.25)" stroke="#60a5fa" stroke-width="1.5" filter="url(#shadow)"/>
  <text x="895" y="576" fill="white" font-size="12" font-weight="600" text-anchor="middle">outputs/ 產出</text>
  <text x="895" y="595" fill="#94a3b8" font-size="9" text-anchor="middle">圖文 · 簡報 · HTML · 發佈</text>

  <!-- Down arrow L4→L5 -->
  <line x1="600" y1="670" x2="600" y2="688" stroke="#fb923c" stroke-width="2" stroke-dasharray="4,3" marker-end="url(#arr-amber)"/>

  <!-- ======================================================== -->
  <!-- LAYER 5: AI 運營與規範 -->
  <!-- ======================================================== -->

  <rect x="140" y="693" width="920" height="100" rx="10" fill="none" stroke="#fb923c" stroke-width="1" stroke-dasharray="8,4" opacity="0.5"/>
  <text x="155" y="708" fill="#fb923c" font-size="10" font-weight="600">▌運營規範層 · AI Operations</text>

  <!-- AI-Log/ -->
  <rect x="250" y="715" width="180" height="55" rx="6" fill="#0f172a"/>
  <rect x="250" y="715" width="180" height="55" rx="6" fill="rgba(251,146,60,0.25)" stroke="#fb923c" stroke-width="1.5" filter="url(#shadow)"/>
  <text x="340" y="739" fill="white" font-size="11" font-weight="600" text-anchor="middle">AI-Log/</text>
  <text x="340" y="756" fill="#94a3b8" font-size="9" text-anchor="middle">AI 操作日誌</text>

  <!-- CLAUDE.md -->
  <rect x="510" y="715" width="180" height="55" rx="6" fill="#0f172a"/>
  <rect x="510" y="715" width="180" height="55" rx="6" fill="rgba(251,146,60,0.25)" stroke="#fb923c" stroke-width="1.5" filter="url(#shadow)"/>
  <text x="600" y="739" fill="white" font-size="11" font-weight="600" text-anchor="middle">CLAUDE.md</text>
  <text x="600" y="756" fill="#94a3b8" font-size="9" text-anchor="middle">Schema · 編譯規則</text>

  <!-- wiki/log.md -->
  <rect x="770" y="715" width="180" height="55" rx="6" fill="#0f172a"/>
  <rect x="770" y="715" width="180" height="55" rx="6" fill="rgba(251,146,60,0.25)" stroke="#fb923c" stroke-width="1.5" filter="url(#shadow)"/>
  <text x="860" y="739" fill="white" font-size="11" font-weight="600" text-anchor="middle">wiki/log.md</text>
  <text x="860" y="756" fill="#94a3b8" font-size="9" text-anchor="middle">編譯歷史記錄</text>

  <!-- ======================================================== -->
  <!-- LEGEND -->
  <!-- ======================================================== -->

  <rect x="890" y="808" width="260" height="38" rx="6" fill="rgba(30,41,59,0.6)" stroke="#475569" stroke-width="0.8"/>
  <text x="902" y="822" fill="#94a3b8" font-size="8">語言策略：</text>
  <rect x="948" y="814" width="8" height="8" rx="2" fill="#fbbf24"/>
  <text x="960" y="822" fill="white" font-size="8">繁中主</text>
  <rect x="1006" y="814" width="8" height="8" rx="2" fill="#60a5fa"/>
  <text x="1018" y="822" fill="white" font-size="8">英文輔</text>
  <rect x="1062" y="814" width="8" height="8" rx="2" fill="#34d399"/>
  <text x="1074" y="822" fill="white" font-size="8">英繁混合</text>
  <text x="902" y="838" fill="#4b5563" font-size="7">動態語言策略 · 依子庫內容自動適配</text>

</svg>
